<?xml version="1.0" encoding="utf-8"?>
<!-- Generator: Adobe Illustrator 16.0.0, SVG Export Plug-In . SVG Version: 6.00 Build 0)  -->
<!DOCTYPE svg PUBLIC "-//W3C//DTD SVG 1.1//EN" "http://www.w3.org/Graphics/SVG/1.1/DTD/svg11.dtd">
<svg version="1.1" id="レイヤー_1" xmlns="http://www.w3.org/2000/svg" xmlns:xlink="http://www.w3.org/1999/xlink" x="0px"
	 y="0px" width="298px" height="600px" viewBox="0 0 298 600" enable-background="new 0 0 298 600" xml:space="preserve">
<g>
	<g>
		<path fill="#FFFFFF" d="M294.18,554.987c-0.051,24.75-20.343,45-45.093,45H48.621c-24.75,0-45-20.25-45-45V45
			c0-24.75,20.25-45,45-45H250.33c24.75,0,44.958,20.25,44.902,45L294.18,554.987z"/>
		<path fill="#FFFFFF" d="M48.621,597.987c-23.71,0-43-19.29-43-43V45c0-23.71,19.29-43,43-43H250.33
			c11.436,0,22.209,4.486,30.338,12.631s12.593,18.929,12.564,30.365l-1.058,509.987c-0.049,23.712-19.38,43.004-43.093,43.004
			H48.621z"/>
		<path fill="#FFFFFF" d="M48.621,595.987c-22.607,0-41-18.396-41-41V45c0-22.607,18.393-41,41-41H250.33
			c10.896,0,21.172,4.277,28.922,12.044c7.751,7.767,12.008,18.047,11.98,28.948l-1.058,509.982
			c-0.047,22.611-18.48,41.013-41.093,41.013H48.621L48.621,595.987z"/>
		<path fill="#FFFFFF" d="M48.621,593.987c-21.505,0-39-17.495-39-39V45c0-21.505,17.495-39,39-39H250.33
			c10.36,0,20.134,4.069,27.506,11.457c7.374,7.389,11.423,17.167,11.396,27.531l-1.058,509.988
			c-0.045,21.516-17.582,39.017-39.093,39.017L48.621,593.987L48.621,593.987z"/>
		<g>
			<path fill="#FFFFFF" d="M13,554.987V45c0-14.018,6.745-26.487,17.151-34.342C17.941,17.252,9.621,30.171,9.621,45v509.987
				c0,14.829,8.315,27.748,20.536,34.343C19.745,581.475,13,569.005,13,554.987z"/>
		</g>
	</g>
	<g>
		<g>
			<g>
				<path fill="#F3F0F0" d="M148.755,541.41c-12.907,0-23.364,10.457-23.364,23.363c0,6.447,2.616,12.281,6.845,16.519
					l33.035-33.038C161.045,544.025,155.203,541.41,148.755,541.41z"/>
				<path fill="#F3F0F0" d="M172.116,564.773c0-6.453-2.615-12.295-6.851-16.521l-33.035,33.038
					c4.229,4.229,10.066,6.843,16.521,6.843C161.655,588.134,172.116,577.671,172.116,564.773z"/>
			</g>
		</g>
		<path fill="#FFFFFF" d="M127.844,564.771c0,11.522,9.381,20.905,20.909,20.905c11.53,0,20.91-9.383,20.91-20.905
			c0-11.529-9.379-20.91-20.91-20.91C137.225,543.861,127.844,553.242,127.844,564.771z"/>
	</g>
	<g>
		<path fill="#FFFFFF" d="M285.672,554.987V45c0-14.018-6.744-26.487-17.156-34.342C280.73,17.252,289.051,30.171,289.051,45
			v509.987c0,14.829-8.32,27.748-20.535,34.343C278.928,581.475,285.672,569.005,285.672,554.987z"/>
	</g>
	<path fill="#4D4D4D" d="M20.121,532.32c-0.829,0-1.5-0.672-1.5-1.5V73.167c0-0.829,0.671-1.5,1.5-1.5h258.088
		c0.828,0,1.5,0.671,1.5,1.5V530.82c0,0.828-0.672,1.5-1.5,1.5H20.121z"/>
	<path fill="#FFFFFF" d="M20.121,532.32c-0.829,0-1.5-0.672-1.5-1.5V73.167c0-0.829,0.671-1.5,1.5-1.5h258.088
		c0.828,0,1.5,0.671,1.5,1.5V530.82c0,0.828-0.672,1.5-1.5,1.5H20.121z M278.209,530.82V73.167H20.121V530.82H278.209z"/>
	<g>
		<g>
			<g>
				
					<linearGradient id="SVGID_1_" gradientUnits="userSpaceOnUse" x1="1512.4221" y1="-313.3389" x2="1512.4221" y2="-316.3572" gradientTransform="matrix(1 0 0 -1 -1362.998 -276.9512)">
					<stop  offset="0" style="stop-color:#000000"/>
					<stop  offset="0.227" style="stop-color:#000000"/>
					<stop  offset="1" style="stop-color:#161616"/>
				</linearGradient>
				<path fill="url(#SVGID_1_)" stroke="#0D0D0D" stroke-width="0.1363" stroke-miterlimit="10" d="M128.57,40.244
					c-1.206,0-2.22-1.02-2.22-2.224v-0.158c0-1.205,1.02-2.226,2.22-2.226h41.701c1.204,0,2.228,1.021,2.228,2.226v0.158
					c0,1.205-1.021,2.224-2.228,2.224H128.57z"/>
				<g>
					<path fill="none" d="M128.57,35.637c-1.206,0-2.22,1.021-2.22,2.225v0.158c0,1.204,1.02,2.224,2.22,2.224h41.701
						c1.2,0,2.229-1.02,2.229-2.224v-0.158c0-1.205-1.025-2.225-2.229-2.225H128.57z"/>
					
						<linearGradient id="SVGID_2_" gradientUnits="userSpaceOnUse" x1="1490.4045" y1="-310.0996" x2="1490.4045" y2="-316.4204" gradientTransform="matrix(1 0 0 -1 -1362.998 -276.9512)">
						<stop  offset="0" style="stop-color:#0E0E0E"/>
						<stop  offset="0.227" style="stop-color:#000000"/>
						<stop  offset="1" style="stop-color:#414141"/>
					</linearGradient>
					<path fill="url(#SVGID_2_)" d="M126.461,38.705l1.427,1.428c0.181,0.061,0.373,0.097,0.573,0.109l-2.109-2.108
						C126.362,38.33,126.4,38.522,126.461,38.705"/>
					
						<linearGradient id="SVGID_3_" gradientUnits="userSpaceOnUse" x1="1491.0413" y1="-310.0986" x2="1491.0413" y2="-316.4199" gradientTransform="matrix(1 0 0 -1 -1362.998 -276.9512)">
						<stop  offset="0" style="stop-color:#0E0E0E"/>
						<stop  offset="0.227" style="stop-color:#000000"/>
						<stop  offset="1" style="stop-color:#414141"/>
					</linearGradient>
					<path fill="url(#SVGID_3_)" d="M126.397,37.414l2.829,2.831h0.463l-3.187-3.185C126.459,37.173,126.422,37.292,126.397,37.414"
						/>
					
						<linearGradient id="SVGID_4_" gradientUnits="userSpaceOnUse" x1="1491.845" y1="-310.0996" x2="1491.845" y2="-316.4199" gradientTransform="matrix(1 0 0 -1 -1362.998 -276.9512)">
						<stop  offset="0" style="stop-color:#0E0E0E"/>
						<stop  offset="0.227" style="stop-color:#000000"/>
						<stop  offset="1" style="stop-color:#414141"/>
					</linearGradient>
					<path fill="url(#SVGID_4_)" d="M126.775,36.568l3.683,3.676h0.462l-3.931-3.926C126.914,36.397,126.84,36.48,126.775,36.568"/>
					
						<linearGradient id="SVGID_5_" gradientUnits="userSpaceOnUse" x1="1492.7737" y1="-310.0996" x2="1492.7737" y2="-316.4202" gradientTransform="matrix(1 0 0 -1 -1362.998 -276.9512)">
						<stop  offset="0" style="stop-color:#0E0E0E"/>
						<stop  offset="0.227" style="stop-color:#000000"/>
						<stop  offset="1" style="stop-color:#414141"/>
					</linearGradient>
					<path fill="url(#SVGID_5_)" d="M127.41,35.977l4.27,4.268h0.46l-4.425-4.427C127.61,35.863,127.508,35.916,127.41,35.977"/>
					
						<linearGradient id="SVGID_6_" gradientUnits="userSpaceOnUse" x1="1493.8401" y1="-310.0986" x2="1493.8401" y2="-316.4205" gradientTransform="matrix(1 0 0 -1 -1362.998 -276.9512)">
						<stop  offset="0" style="stop-color:#0E0E0E"/>
						<stop  offset="0.227" style="stop-color:#000000"/>
						<stop  offset="1" style="stop-color:#414141"/>
					</linearGradient>
					<path fill="url(#SVGID_6_)" d="M128.57,35.638c-0.086,0-0.172,0.005-0.257,0.014l4.593,4.592h0.466l-4.604-4.606H128.57z"/>
					
						<linearGradient id="SVGID_7_" gradientUnits="userSpaceOnUse" x1="1495.0569" y1="-310.0986" x2="1495.0569" y2="-316.4205" gradientTransform="matrix(1 0 0 -1 -1362.998 -276.9512)">
						<stop  offset="0" style="stop-color:#0E0E0E"/>
						<stop  offset="0.227" style="stop-color:#000000"/>
						<stop  offset="1" style="stop-color:#414141"/>
					</linearGradient>
					<polygon fill="url(#SVGID_7_)" points="129.524,35.638 134.13,40.244 134.594,40.244 129.987,35.638 					"/>
					
						<linearGradient id="SVGID_8_" gradientUnits="userSpaceOnUse" x1="1496.2854" y1="-310.0986" x2="1496.2854" y2="-316.4205" gradientTransform="matrix(1 0 0 -1 -1362.998 -276.9512)">
						<stop  offset="0" style="stop-color:#0E0E0E"/>
						<stop  offset="0.227" style="stop-color:#000000"/>
						<stop  offset="1" style="stop-color:#414141"/>
					</linearGradient>
					<polygon fill="url(#SVGID_8_)" points="130.75,35.638 135.356,40.244 135.824,40.244 131.217,35.638 					"/>
					
						<linearGradient id="SVGID_9_" gradientUnits="userSpaceOnUse" x1="1497.511" y1="-310.0986" x2="1497.511" y2="-316.4205" gradientTransform="matrix(1 0 0 -1 -1362.998 -276.9512)">
						<stop  offset="0" style="stop-color:#0E0E0E"/>
						<stop  offset="0.227" style="stop-color:#000000"/>
						<stop  offset="1" style="stop-color:#414141"/>
					</linearGradient>
					<polygon fill="url(#SVGID_9_)" points="131.979,35.638 136.586,40.244 137.047,40.244 132.44,35.638 					"/>
					
						<linearGradient id="SVGID_10_" gradientUnits="userSpaceOnUse" x1="1498.7366" y1="-310.0986" x2="1498.7366" y2="-316.4205" gradientTransform="matrix(1 0 0 -1 -1362.998 -276.9512)">
						<stop  offset="0" style="stop-color:#0E0E0E"/>
						<stop  offset="0.227" style="stop-color:#000000"/>
						<stop  offset="1" style="stop-color:#414141"/>
					</linearGradient>
					<polygon fill="url(#SVGID_10_)" points="133.203,35.638 137.81,40.244 138.274,40.244 133.667,35.638 					"/>
					
						<linearGradient id="SVGID_11_" gradientUnits="userSpaceOnUse" x1="1499.9631" y1="-310.0986" x2="1499.9631" y2="-316.4205" gradientTransform="matrix(1 0 0 -1 -1362.998 -276.9512)">
						<stop  offset="0" style="stop-color:#0E0E0E"/>
						<stop  offset="0.227" style="stop-color:#000000"/>
						<stop  offset="1" style="stop-color:#414141"/>
					</linearGradient>
					<polygon fill="url(#SVGID_11_)" points="134.429,35.638 139.04,40.244 139.502,40.244 134.896,35.638 					"/>
					
						<linearGradient id="SVGID_12_" gradientUnits="userSpaceOnUse" x1="1501.1897" y1="-310.0986" x2="1501.1897" y2="-316.4205" gradientTransform="matrix(1 0 0 -1 -1362.998 -276.9512)">
						<stop  offset="0" style="stop-color:#0E0E0E"/>
						<stop  offset="0.227" style="stop-color:#000000"/>
						<stop  offset="1" style="stop-color:#414141"/>
					</linearGradient>
					<polygon fill="url(#SVGID_12_)" points="135.656,35.638 140.263,40.244 140.727,40.244 136.12,35.638 					"/>
					
						<linearGradient id="SVGID_13_" gradientUnits="userSpaceOnUse" x1="1502.4182" y1="-310.0986" x2="1502.4182" y2="-316.4205" gradientTransform="matrix(1 0 0 -1 -1362.998 -276.9512)">
						<stop  offset="0" style="stop-color:#0E0E0E"/>
						<stop  offset="0.227" style="stop-color:#000000"/>
						<stop  offset="1" style="stop-color:#414141"/>
					</linearGradient>
					<polygon fill="url(#SVGID_13_)" points="136.886,35.638 141.491,40.244 141.954,40.244 137.347,35.638 					"/>
					
						<linearGradient id="SVGID_14_" gradientUnits="userSpaceOnUse" x1="1503.6438" y1="-310.0986" x2="1503.6438" y2="-316.4205" gradientTransform="matrix(1 0 0 -1 -1362.998 -276.9512)">
						<stop  offset="0" style="stop-color:#0E0E0E"/>
						<stop  offset="0.227" style="stop-color:#000000"/>
						<stop  offset="1" style="stop-color:#414141"/>
					</linearGradient>
					<polygon fill="url(#SVGID_14_)" points="138.112,35.638 142.716,40.244 143.18,40.244 138.573,35.638 					"/>
					
						<linearGradient id="SVGID_15_" gradientUnits="userSpaceOnUse" x1="1504.8704" y1="-310.0986" x2="1504.8704" y2="-316.4205" gradientTransform="matrix(1 0 0 -1 -1362.998 -276.9512)">
						<stop  offset="0" style="stop-color:#0E0E0E"/>
						<stop  offset="0.227" style="stop-color:#000000"/>
						<stop  offset="1" style="stop-color:#414141"/>
					</linearGradient>
					<polygon fill="url(#SVGID_15_)" points="139.336,35.638 143.946,40.244 144.408,40.244 139.803,35.638 					"/>
					
						<linearGradient id="SVGID_16_" gradientUnits="userSpaceOnUse" x1="1506.0969" y1="-310.0986" x2="1506.0969" y2="-316.4205" gradientTransform="matrix(1 0 0 -1 -1362.998 -276.9512)">
						<stop  offset="0" style="stop-color:#0E0E0E"/>
						<stop  offset="0.227" style="stop-color:#000000"/>
						<stop  offset="1" style="stop-color:#414141"/>
					</linearGradient>
					<polygon fill="url(#SVGID_16_)" points="140.563,35.638 145.171,40.244 145.635,40.244 141.026,35.638 					"/>
					
						<linearGradient id="SVGID_17_" gradientUnits="userSpaceOnUse" x1="1507.3245" y1="-310.0986" x2="1507.3245" y2="-316.4205" gradientTransform="matrix(1 0 0 -1 -1362.998 -276.9512)">
						<stop  offset="0" style="stop-color:#0E0E0E"/>
						<stop  offset="0.227" style="stop-color:#000000"/>
						<stop  offset="1" style="stop-color:#414141"/>
					</linearGradient>
					<polygon fill="url(#SVGID_17_)" points="141.79,35.638 146.397,40.244 146.863,40.244 142.253,35.638 					"/>
					
						<linearGradient id="SVGID_18_" gradientUnits="userSpaceOnUse" x1="1508.55" y1="-310.0986" x2="1508.55" y2="-316.4205" gradientTransform="matrix(1 0 0 -1 -1362.998 -276.9512)">
						<stop  offset="0" style="stop-color:#0E0E0E"/>
						<stop  offset="0.227" style="stop-color:#000000"/>
						<stop  offset="1" style="stop-color:#414141"/>
					</linearGradient>
					<polygon fill="url(#SVGID_18_)" points="143.016,35.638 147.624,40.244 148.088,40.244 143.479,35.638 					"/>
					
						<linearGradient id="SVGID_19_" gradientUnits="userSpaceOnUse" x1="1509.7756" y1="-310.0986" x2="1509.7756" y2="-316.4205" gradientTransform="matrix(1 0 0 -1 -1362.998 -276.9512)">
						<stop  offset="0" style="stop-color:#0E0E0E"/>
						<stop  offset="0.227" style="stop-color:#000000"/>
						<stop  offset="1" style="stop-color:#414141"/>
					</linearGradient>
					<polygon fill="url(#SVGID_19_)" points="144.243,35.638 148.853,40.244 149.312,40.244 144.705,35.638 					"/>
					
						<linearGradient id="SVGID_20_" gradientUnits="userSpaceOnUse" x1="1511.0061" y1="-310.0986" x2="1511.0061" y2="-316.4205" gradientTransform="matrix(1 0 0 -1 -1362.998 -276.9512)">
						<stop  offset="0" style="stop-color:#0E0E0E"/>
						<stop  offset="0.227" style="stop-color:#000000"/>
						<stop  offset="1" style="stop-color:#414141"/>
					</linearGradient>
					<polygon fill="url(#SVGID_20_)" points="145.473,35.638 150.077,40.244 150.543,40.244 145.934,35.638 					"/>
					
						<linearGradient id="SVGID_21_" gradientUnits="userSpaceOnUse" x1="1512.2307" y1="-310.0986" x2="1512.2307" y2="-316.4205" gradientTransform="matrix(1 0 0 -1 -1362.998 -276.9512)">
						<stop  offset="0" style="stop-color:#0E0E0E"/>
						<stop  offset="0.227" style="stop-color:#000000"/>
						<stop  offset="1" style="stop-color:#414141"/>
					</linearGradient>
					<polygon fill="url(#SVGID_21_)" points="146.697,35.638 151.303,40.244 151.768,40.244 147.161,35.638 					"/>
					
						<linearGradient id="SVGID_22_" gradientUnits="userSpaceOnUse" x1="1513.4573" y1="-310.0986" x2="1513.4573" y2="-316.4205" gradientTransform="matrix(1 0 0 -1 -1362.998 -276.9512)">
						<stop  offset="0" style="stop-color:#0E0E0E"/>
						<stop  offset="0.227" style="stop-color:#000000"/>
						<stop  offset="1" style="stop-color:#414141"/>
					</linearGradient>
					<polygon fill="url(#SVGID_22_)" points="147.924,35.638 152.533,40.244 152.995,40.244 148.385,35.638 					"/>
					
						<linearGradient id="SVGID_23_" gradientUnits="userSpaceOnUse" x1="1514.6838" y1="-310.0986" x2="1514.6838" y2="-316.4205" gradientTransform="matrix(1 0 0 -1 -1362.998 -276.9512)">
						<stop  offset="0" style="stop-color:#0E0E0E"/>
						<stop  offset="0.227" style="stop-color:#000000"/>
						<stop  offset="1" style="stop-color:#414141"/>
					</linearGradient>
					<polygon fill="url(#SVGID_23_)" points="149.149,35.638 153.757,40.244 154.222,40.244 149.615,35.638 					"/>
					
						<linearGradient id="SVGID_24_" gradientUnits="userSpaceOnUse" x1="1515.9084" y1="-310.0986" x2="1515.9084" y2="-316.4205" gradientTransform="matrix(1 0 0 -1 -1362.998 -276.9512)">
						<stop  offset="0" style="stop-color:#0E0E0E"/>
						<stop  offset="0.227" style="stop-color:#000000"/>
						<stop  offset="1" style="stop-color:#414141"/>
					</linearGradient>
					<polygon fill="url(#SVGID_24_)" points="150.375,35.638 154.984,40.244 155.447,40.244 150.838,35.638 					"/>
					
						<linearGradient id="SVGID_25_" gradientUnits="userSpaceOnUse" x1="1517.136" y1="-310.0986" x2="1517.136" y2="-316.4205" gradientTransform="matrix(1 0 0 -1 -1362.998 -276.9512)">
						<stop  offset="0" style="stop-color:#0E0E0E"/>
						<stop  offset="0.227" style="stop-color:#000000"/>
						<stop  offset="1" style="stop-color:#414141"/>
					</linearGradient>
					<polygon fill="url(#SVGID_25_)" points="151.601,35.638 156.21,40.244 156.675,40.244 152.065,35.638 					"/>
					
						<linearGradient id="SVGID_26_" gradientUnits="userSpaceOnUse" x1="1518.3616" y1="-310.0986" x2="1518.3616" y2="-316.4205" gradientTransform="matrix(1 0 0 -1 -1362.998 -276.9512)">
						<stop  offset="0" style="stop-color:#0E0E0E"/>
						<stop  offset="0.227" style="stop-color:#000000"/>
						<stop  offset="1" style="stop-color:#414141"/>
					</linearGradient>
					<polygon fill="url(#SVGID_26_)" points="152.828,35.638 157.436,40.244 157.9,40.244 153.293,35.638 					"/>
					
						<linearGradient id="SVGID_27_" gradientUnits="userSpaceOnUse" x1="1519.5901" y1="-310.0986" x2="1519.5901" y2="-316.4205" gradientTransform="matrix(1 0 0 -1 -1362.998 -276.9512)">
						<stop  offset="0" style="stop-color:#0E0E0E"/>
						<stop  offset="0.227" style="stop-color:#000000"/>
						<stop  offset="1" style="stop-color:#414141"/>
					</linearGradient>
					<polygon fill="url(#SVGID_27_)" points="154.06,35.638 158.661,40.244 159.123,40.244 154.518,35.638 					"/>
					
						<linearGradient id="SVGID_28_" gradientUnits="userSpaceOnUse" x1="1520.8176" y1="-310.0986" x2="1520.8176" y2="-316.4205" gradientTransform="matrix(1 0 0 -1 -1362.998 -276.9512)">
						<stop  offset="0" style="stop-color:#0E0E0E"/>
						<stop  offset="0.227" style="stop-color:#000000"/>
						<stop  offset="1" style="stop-color:#414141"/>
					</linearGradient>
					<polygon fill="url(#SVGID_28_)" points="155.287,35.638 159.894,40.244 160.352,40.244 155.745,35.638 					"/>
					
						<linearGradient id="SVGID_29_" gradientUnits="userSpaceOnUse" x1="1522.0432" y1="-310.0986" x2="1522.0432" y2="-316.4205" gradientTransform="matrix(1 0 0 -1 -1362.998 -276.9512)">
						<stop  offset="0" style="stop-color:#0E0E0E"/>
						<stop  offset="0.227" style="stop-color:#000000"/>
						<stop  offset="1" style="stop-color:#414141"/>
					</linearGradient>
					<polygon fill="url(#SVGID_29_)" points="156.513,35.638 161.118,40.244 161.576,40.244 156.975,35.638 					"/>
					
						<linearGradient id="SVGID_30_" gradientUnits="userSpaceOnUse" x1="1523.2698" y1="-310.0986" x2="1523.2698" y2="-316.4205" gradientTransform="matrix(1 0 0 -1 -1362.998 -276.9512)">
						<stop  offset="0" style="stop-color:#0E0E0E"/>
						<stop  offset="0.227" style="stop-color:#000000"/>
						<stop  offset="1" style="stop-color:#414141"/>
					</linearGradient>
					<polygon fill="url(#SVGID_30_)" points="157.735,35.638 162.344,40.244 162.809,40.244 158.2,35.638 					"/>
					
						<linearGradient id="SVGID_31_" gradientUnits="userSpaceOnUse" x1="1524.4963" y1="-310.0986" x2="1524.4963" y2="-316.4205" gradientTransform="matrix(1 0 0 -1 -1362.998 -276.9512)">
						<stop  offset="0" style="stop-color:#0E0E0E"/>
						<stop  offset="0.227" style="stop-color:#000000"/>
						<stop  offset="1" style="stop-color:#414141"/>
					</linearGradient>
					<polygon fill="url(#SVGID_31_)" points="158.963,35.638 163.571,40.244 164.034,40.244 159.426,35.638 					"/>
					
						<linearGradient id="SVGID_32_" gradientUnits="userSpaceOnUse" x1="1525.7229" y1="-310.0986" x2="1525.7229" y2="-316.4205" gradientTransform="matrix(1 0 0 -1 -1362.998 -276.9512)">
						<stop  offset="0" style="stop-color:#0E0E0E"/>
						<stop  offset="0.227" style="stop-color:#000000"/>
						<stop  offset="1" style="stop-color:#414141"/>
					</linearGradient>
					<polygon fill="url(#SVGID_32_)" points="160.188,35.638 164.798,40.244 165.261,40.244 160.653,35.638 					"/>
					
						<linearGradient id="SVGID_33_" gradientUnits="userSpaceOnUse" x1="1526.9495" y1="-310.0986" x2="1526.9495" y2="-316.4205" gradientTransform="matrix(1 0 0 -1 -1362.998 -276.9512)">
						<stop  offset="0" style="stop-color:#0E0E0E"/>
						<stop  offset="0.227" style="stop-color:#000000"/>
						<stop  offset="1" style="stop-color:#414141"/>
					</linearGradient>
					<polygon fill="url(#SVGID_33_)" points="161.414,35.638 166.023,40.244 166.488,40.244 161.879,35.638 					"/>
					
						<linearGradient id="SVGID_34_" gradientUnits="userSpaceOnUse" x1="1528.176" y1="-310.0986" x2="1528.176" y2="-316.4205" gradientTransform="matrix(1 0 0 -1 -1362.998 -276.9512)">
						<stop  offset="0" style="stop-color:#0E0E0E"/>
						<stop  offset="0.227" style="stop-color:#000000"/>
						<stop  offset="1" style="stop-color:#414141"/>
					</linearGradient>
					<polygon fill="url(#SVGID_34_)" points="162.642,35.638 167.251,40.244 167.714,40.244 163.106,35.638 					"/>
					
						<linearGradient id="SVGID_35_" gradientUnits="userSpaceOnUse" x1="1529.4026" y1="-310.0986" x2="1529.4026" y2="-316.4205" gradientTransform="matrix(1 0 0 -1 -1362.998 -276.9512)">
						<stop  offset="0" style="stop-color:#0E0E0E"/>
						<stop  offset="0.227" style="stop-color:#000000"/>
						<stop  offset="1" style="stop-color:#414141"/>
					</linearGradient>
					<polygon fill="url(#SVGID_35_)" points="163.867,35.638 168.474,40.244 168.941,40.244 164.331,35.638 					"/>
					
						<linearGradient id="SVGID_36_" gradientUnits="userSpaceOnUse" x1="1530.6292" y1="-310.0986" x2="1530.6292" y2="-316.4205" gradientTransform="matrix(1 0 0 -1 -1362.998 -276.9512)">
						<stop  offset="0" style="stop-color:#0E0E0E"/>
						<stop  offset="0.227" style="stop-color:#000000"/>
						<stop  offset="1" style="stop-color:#414141"/>
					</linearGradient>
					<polygon fill="url(#SVGID_36_)" points="165.094,35.638 169.704,40.244 170.167,40.244 165.559,35.638 					"/>
					
						<linearGradient id="SVGID_37_" gradientUnits="userSpaceOnUse" x1="1531.7542" y1="-310.0986" x2="1531.7542" y2="-316.421" gradientTransform="matrix(1 0 0 -1 -1362.998 -276.9512)">
						<stop  offset="0" style="stop-color:#0E0E0E"/>
						<stop  offset="0.227" style="stop-color:#000000"/>
						<stop  offset="1" style="stop-color:#414141"/>
					</linearGradient>
					<path fill="url(#SVGID_37_)" d="M166.325,35.637l4.521,4.527c0.114-0.031,0.235-0.076,0.34-0.125l-4.406-4.402H166.325z"/>
					
						<linearGradient id="SVGID_38_" gradientUnits="userSpaceOnUse" x1="1532.717" y1="-310.0986" x2="1532.717" y2="-316.4207" gradientTransform="matrix(1 0 0 -1 -1362.998 -276.9512)">
						<stop  offset="0" style="stop-color:#0E0E0E"/>
						<stop  offset="0.227" style="stop-color:#000000"/>
						<stop  offset="1" style="stop-color:#414141"/>
					</linearGradient>
					<path fill="url(#SVGID_38_)" d="M167.549,35.638l4.11,4.107c0.084-0.069,0.158-0.143,0.23-0.224l-3.886-3.883H167.549z"/>
					
						<linearGradient id="SVGID_39_" gradientUnits="userSpaceOnUse" x1="1533.5667" y1="-310.0986" x2="1533.5667" y2="-316.4204" gradientTransform="matrix(1 0 0 -1 -1362.998 -276.9512)">
						<stop  offset="0" style="stop-color:#0E0E0E"/>
						<stop  offset="0.227" style="stop-color:#000000"/>
						<stop  offset="1" style="stop-color:#414141"/>
					</linearGradient>
					<path fill="url(#SVGID_39_)" d="M168.774,35.637l3.443,3.443c0.058-0.101,0.104-0.208,0.146-0.317l-3.128-3.125L168.774,35.637
						L168.774,35.637z"/>
					
						<linearGradient id="SVGID_40_" gradientUnits="userSpaceOnUse" x1="1534.2483" y1="-310.0977" x2="1534.2483" y2="-316.4218" gradientTransform="matrix(1 0 0 -1 -1362.998 -276.9512)">
						<stop  offset="0" style="stop-color:#0E0E0E"/>
						<stop  offset="0.227" style="stop-color:#000000"/>
						<stop  offset="1" style="stop-color:#414141"/>
					</linearGradient>
					<path fill="url(#SVGID_40_)" d="M170.002,35.637l2.492,2.494c0-0.038,0.003-0.076,0.003-0.111v-0.158
						c0-0.068-0.005-0.136-0.015-0.202l-2.012-2.014c-0.071-0.006-0.137-0.009-0.209-0.009H170.002z"/>
					
						<linearGradient id="SVGID_41_" gradientUnits="userSpaceOnUse" x1="1490.6506" y1="-310.0977" x2="1490.6506" y2="-316.4201" gradientTransform="matrix(1 0 0 -1 -1362.998 -276.9512)">
						<stop  offset="0" style="stop-color:#0E0E0E"/>
						<stop  offset="0.227" style="stop-color:#000000"/>
						<stop  offset="1" style="stop-color:#414141"/>
					</linearGradient>
					<path fill="url(#SVGID_41_)" d="M128.57,35.638c-0.021,0-0.058,0-0.083,0.001l-2.137,2.139c0,0.029,0,0.057,0,0.085v0.158
						c0,0.071,0.002,0.141,0.009,0.21l2.597-2.592L128.57,35.638L128.57,35.638z"/>
					
						<linearGradient id="SVGID_42_" gradientUnits="userSpaceOnUse" x1="1491.344" y1="-310.0977" x2="1491.344" y2="-316.4199" gradientTransform="matrix(1 0 0 -1 -1362.998 -276.9512)">
						<stop  offset="0" style="stop-color:#0E0E0E"/>
						<stop  offset="0.227" style="stop-color:#000000"/>
						<stop  offset="1" style="stop-color:#414141"/>
					</linearGradient>
					<path fill="url(#SVGID_42_)" d="M129.714,35.638l-3.201,3.202c0.04,0.106,0.094,0.21,0.153,0.309l3.512-3.511H129.714z"/>
					
						<linearGradient id="SVGID_43_" gradientUnits="userSpaceOnUse" x1="1492.2034" y1="-310.0986" x2="1492.2034" y2="-316.4202" gradientTransform="matrix(1 0 0 -1 -1362.998 -276.9512)">
						<stop  offset="0" style="stop-color:#0E0E0E"/>
						<stop  offset="0.227" style="stop-color:#000000"/>
						<stop  offset="1" style="stop-color:#414141"/>
					</linearGradient>
					<path fill="url(#SVGID_43_)" d="M130.94,35.638l-3.938,3.94c0.077,0.078,0.161,0.149,0.248,0.214l4.158-4.155L130.94,35.638
						L130.94,35.638z"/>
					
						<linearGradient id="SVGID_44_" gradientUnits="userSpaceOnUse" x1="1493.179" y1="-310.0977" x2="1493.179" y2="-316.4207" gradientTransform="matrix(1 0 0 -1 -1362.998 -276.9512)">
						<stop  offset="0" style="stop-color:#0E0E0E"/>
						<stop  offset="0.227" style="stop-color:#000000"/>
						<stop  offset="1" style="stop-color:#414141"/>
					</linearGradient>
					<path fill="url(#SVGID_44_)" d="M132.167,35.638l-4.438,4.435c0.114,0.046,0.229,0.087,0.354,0.115l4.551-4.55H132.167z"/>
					
						<linearGradient id="SVGID_45_" gradientUnits="userSpaceOnUse" x1="1494.3186" y1="-310.0986" x2="1494.3186" y2="-316.4205" gradientTransform="matrix(1 0 0 -1 -1362.998 -276.9512)">
						<stop  offset="0" style="stop-color:#0E0E0E"/>
						<stop  offset="0.227" style="stop-color:#000000"/>
						<stop  offset="1" style="stop-color:#414141"/>
					</linearGradient>
					<polygon fill="url(#SVGID_45_)" points="133.394,35.638 128.787,40.244 129.25,40.244 133.854,35.638 					"/>
					
						<linearGradient id="SVGID_46_" gradientUnits="userSpaceOnUse" x1="1495.5471" y1="-310.0986" x2="1495.5471" y2="-316.4205" gradientTransform="matrix(1 0 0 -1 -1362.998 -276.9512)">
						<stop  offset="0" style="stop-color:#0E0E0E"/>
						<stop  offset="0.227" style="stop-color:#000000"/>
						<stop  offset="1" style="stop-color:#414141"/>
					</linearGradient>
					<polygon fill="url(#SVGID_46_)" points="134.621,35.638 130.014,40.244 130.48,40.244 135.084,35.638 					"/>
					
						<linearGradient id="SVGID_47_" gradientUnits="userSpaceOnUse" x1="1496.7737" y1="-310.0986" x2="1496.7737" y2="-316.4205" gradientTransform="matrix(1 0 0 -1 -1362.998 -276.9512)">
						<stop  offset="0" style="stop-color:#0E0E0E"/>
						<stop  offset="0.227" style="stop-color:#000000"/>
						<stop  offset="1" style="stop-color:#414141"/>
					</linearGradient>
					<polygon fill="url(#SVGID_47_)" points="135.847,35.638 131.24,40.244 131.703,40.244 136.31,35.638 					"/>
					
						<linearGradient id="SVGID_48_" gradientUnits="userSpaceOnUse" x1="1497.9993" y1="-310.0986" x2="1497.9993" y2="-316.4205" gradientTransform="matrix(1 0 0 -1 -1362.998 -276.9512)">
						<stop  offset="0" style="stop-color:#0E0E0E"/>
						<stop  offset="0.227" style="stop-color:#000000"/>
						<stop  offset="1" style="stop-color:#414141"/>
					</linearGradient>
					<polygon fill="url(#SVGID_48_)" points="137.071,35.638 132.464,40.244 132.928,40.244 137.538,35.638 					"/>
					
						<linearGradient id="SVGID_49_" gradientUnits="userSpaceOnUse" x1="1499.2268" y1="-310.0986" x2="1499.2268" y2="-316.4205" gradientTransform="matrix(1 0 0 -1 -1362.998 -276.9512)">
						<stop  offset="0" style="stop-color:#0E0E0E"/>
						<stop  offset="0.227" style="stop-color:#000000"/>
						<stop  offset="1" style="stop-color:#414141"/>
					</linearGradient>
					<polygon fill="url(#SVGID_49_)" points="138.3,35.638 133.696,40.244 134.156,40.244 138.763,35.638 					"/>
					
						<linearGradient id="SVGID_50_" gradientUnits="userSpaceOnUse" x1="1500.4534" y1="-310.0986" x2="1500.4534" y2="-316.4205" gradientTransform="matrix(1 0 0 -1 -1362.998 -276.9512)">
						<stop  offset="0" style="stop-color:#0E0E0E"/>
						<stop  offset="0.227" style="stop-color:#000000"/>
						<stop  offset="1" style="stop-color:#414141"/>
					</linearGradient>
					<polygon fill="url(#SVGID_50_)" points="139.525,35.638 134.919,40.244 135.381,40.244 139.991,35.638 					"/>
					
						<linearGradient id="SVGID_51_" gradientUnits="userSpaceOnUse" x1="1501.6799" y1="-310.0986" x2="1501.6799" y2="-316.4205" gradientTransform="matrix(1 0 0 -1 -1362.998 -276.9512)">
						<stop  offset="0" style="stop-color:#0E0E0E"/>
						<stop  offset="0.227" style="stop-color:#000000"/>
						<stop  offset="1" style="stop-color:#414141"/>
					</linearGradient>
					<polygon fill="url(#SVGID_51_)" points="140.756,35.638 136.147,40.244 136.607,40.244 141.216,35.638 					"/>
					
						<linearGradient id="SVGID_52_" gradientUnits="userSpaceOnUse" x1="1502.9065" y1="-310.0986" x2="1502.9065" y2="-316.4205" gradientTransform="matrix(1 0 0 -1 -1362.998 -276.9512)">
						<stop  offset="0" style="stop-color:#0E0E0E"/>
						<stop  offset="0.227" style="stop-color:#000000"/>
						<stop  offset="1" style="stop-color:#414141"/>
					</linearGradient>
					<polygon fill="url(#SVGID_52_)" points="141.979,35.638 137.373,40.244 137.836,40.244 142.443,35.638 					"/>
					
						<linearGradient id="SVGID_53_" gradientUnits="userSpaceOnUse" x1="1504.1311" y1="-310.0986" x2="1504.1311" y2="-316.4205" gradientTransform="matrix(1 0 0 -1 -1362.998 -276.9512)">
						<stop  offset="0" style="stop-color:#0E0E0E"/>
						<stop  offset="0.227" style="stop-color:#000000"/>
						<stop  offset="1" style="stop-color:#414141"/>
					</linearGradient>
					<polygon fill="url(#SVGID_53_)" points="143.205,35.638 138.598,40.244 139.062,40.244 143.669,35.638 					"/>
					
						<linearGradient id="SVGID_54_" gradientUnits="userSpaceOnUse" x1="1505.3596" y1="-310.0986" x2="1505.3596" y2="-316.4205" gradientTransform="matrix(1 0 0 -1 -1362.998 -276.9512)">
						<stop  offset="0" style="stop-color:#0E0E0E"/>
						<stop  offset="0.227" style="stop-color:#000000"/>
						<stop  offset="1" style="stop-color:#414141"/>
					</linearGradient>
					<polygon fill="url(#SVGID_54_)" points="144.433,35.638 139.826,40.244 140.288,40.244 144.897,35.638 					"/>
					
						<linearGradient id="SVGID_55_" gradientUnits="userSpaceOnUse" x1="1506.5852" y1="-310.0986" x2="1506.5852" y2="-316.4205" gradientTransform="matrix(1 0 0 -1 -1362.998 -276.9512)">
						<stop  offset="0" style="stop-color:#0E0E0E"/>
						<stop  offset="0.227" style="stop-color:#000000"/>
						<stop  offset="1" style="stop-color:#414141"/>
					</linearGradient>
					<polygon fill="url(#SVGID_55_)" points="145.662,35.638 141.052,40.244 141.514,40.244 146.122,35.638 					"/>
					
						<linearGradient id="SVGID_56_" gradientUnits="userSpaceOnUse" x1="1507.8118" y1="-310.0986" x2="1507.8118" y2="-316.4205" gradientTransform="matrix(1 0 0 -1 -1362.998 -276.9512)">
						<stop  offset="0" style="stop-color:#0E0E0E"/>
						<stop  offset="0.227" style="stop-color:#000000"/>
						<stop  offset="1" style="stop-color:#414141"/>
					</linearGradient>
					<polygon fill="url(#SVGID_56_)" points="146.887,35.638 142.279,40.244 142.743,40.244 147.349,35.638 					"/>
					
						<linearGradient id="SVGID_57_" gradientUnits="userSpaceOnUse" x1="1509.0374" y1="-310.0986" x2="1509.0374" y2="-316.4205" gradientTransform="matrix(1 0 0 -1 -1362.998 -276.9512)">
						<stop  offset="0" style="stop-color:#0E0E0E"/>
						<stop  offset="0.227" style="stop-color:#000000"/>
						<stop  offset="1" style="stop-color:#414141"/>
					</linearGradient>
					<polygon fill="url(#SVGID_57_)" points="148.115,35.638 143.503,40.244 143.969,40.244 148.575,35.638 					"/>
					
						<linearGradient id="SVGID_58_" gradientUnits="userSpaceOnUse" x1="1510.2639" y1="-310.0986" x2="1510.2639" y2="-316.4205" gradientTransform="matrix(1 0 0 -1 -1362.998 -276.9512)">
						<stop  offset="0" style="stop-color:#0E0E0E"/>
						<stop  offset="0.227" style="stop-color:#000000"/>
						<stop  offset="1" style="stop-color:#414141"/>
					</linearGradient>
					<polygon fill="url(#SVGID_58_)" points="149.343,35.638 144.731,40.244 145.196,40.244 149.801,35.638 					"/>
					
						<linearGradient id="SVGID_59_" gradientUnits="userSpaceOnUse" x1="1511.4915" y1="-310.0986" x2="1511.4915" y2="-316.4205" gradientTransform="matrix(1 0 0 -1 -1362.998 -276.9512)">
						<stop  offset="0" style="stop-color:#0E0E0E"/>
						<stop  offset="0.227" style="stop-color:#000000"/>
						<stop  offset="1" style="stop-color:#414141"/>
					</linearGradient>
					<polygon fill="url(#SVGID_59_)" points="150.565,35.638 145.961,40.244 146.422,40.244 151.026,35.638 					"/>
					
						<linearGradient id="SVGID_60_" gradientUnits="userSpaceOnUse" x1="1512.7209" y1="-310.0986" x2="1512.7209" y2="-316.4205" gradientTransform="matrix(1 0 0 -1 -1362.998 -276.9512)">
						<stop  offset="0" style="stop-color:#0E0E0E"/>
						<stop  offset="0.227" style="stop-color:#000000"/>
						<stop  offset="1" style="stop-color:#414141"/>
					</linearGradient>
					<polygon fill="url(#SVGID_60_)" points="151.796,35.638 147.188,40.244 147.649,40.244 152.259,35.638 					"/>
					
						<linearGradient id="SVGID_61_" gradientUnits="userSpaceOnUse" x1="1513.9475" y1="-310.0986" x2="1513.9475" y2="-316.4205" gradientTransform="matrix(1 0 0 -1 -1362.998 -276.9512)">
						<stop  offset="0" style="stop-color:#0E0E0E"/>
						<stop  offset="0.227" style="stop-color:#000000"/>
						<stop  offset="1" style="stop-color:#414141"/>
					</linearGradient>
					<polygon fill="url(#SVGID_61_)" points="153.019,35.638 148.413,40.244 148.878,40.244 153.485,35.638 					"/>
					
						<linearGradient id="SVGID_62_" gradientUnits="userSpaceOnUse" x1="1515.1741" y1="-310.0986" x2="1515.1741" y2="-316.4205" gradientTransform="matrix(1 0 0 -1 -1362.998 -276.9512)">
						<stop  offset="0" style="stop-color:#0E0E0E"/>
						<stop  offset="0.227" style="stop-color:#000000"/>
						<stop  offset="1" style="stop-color:#414141"/>
					</linearGradient>
					<polygon fill="url(#SVGID_62_)" points="154.245,35.638 149.638,40.244 150.101,40.244 154.713,35.638 					"/>
					
						<linearGradient id="SVGID_63_" gradientUnits="userSpaceOnUse" x1="1516.4006" y1="-310.0986" x2="1516.4006" y2="-316.4205" gradientTransform="matrix(1 0 0 -1 -1362.998 -276.9512)">
						<stop  offset="0" style="stop-color:#0E0E0E"/>
						<stop  offset="0.227" style="stop-color:#000000"/>
						<stop  offset="1" style="stop-color:#414141"/>
					</linearGradient>
					<polygon fill="url(#SVGID_63_)" points="155.473,35.638 150.866,40.244 151.331,40.244 155.938,35.638 					"/>
					
						<linearGradient id="SVGID_64_" gradientUnits="userSpaceOnUse" x1="1517.6272" y1="-310.0986" x2="1517.6272" y2="-316.4205" gradientTransform="matrix(1 0 0 -1 -1362.998 -276.9512)">
						<stop  offset="0" style="stop-color:#0E0E0E"/>
						<stop  offset="0.227" style="stop-color:#000000"/>
						<stop  offset="1" style="stop-color:#414141"/>
					</linearGradient>
					<polygon fill="url(#SVGID_64_)" points="156.701,35.638 152.094,40.244 152.554,40.244 157.163,35.638 					"/>
					
						<linearGradient id="SVGID_65_" gradientUnits="userSpaceOnUse" x1="1518.8499" y1="-310.0986" x2="1518.8499" y2="-316.4205" gradientTransform="matrix(1 0 0 -1 -1362.998 -276.9512)">
						<stop  offset="0" style="stop-color:#0E0E0E"/>
						<stop  offset="0.227" style="stop-color:#000000"/>
						<stop  offset="1" style="stop-color:#414141"/>
					</linearGradient>
					<polygon fill="url(#SVGID_65_)" points="157.926,35.638 153.314,40.244 153.782,40.244 158.391,35.638 					"/>
					
						<linearGradient id="SVGID_66_" gradientUnits="userSpaceOnUse" x1="1520.0774" y1="-310.0986" x2="1520.0774" y2="-316.4205" gradientTransform="matrix(1 0 0 -1 -1362.998 -276.9512)">
						<stop  offset="0" style="stop-color:#0E0E0E"/>
						<stop  offset="0.227" style="stop-color:#000000"/>
						<stop  offset="1" style="stop-color:#414141"/>
					</linearGradient>
					<polygon fill="url(#SVGID_66_)" points="159.153,35.638 154.545,40.244 155.008,40.244 159.614,35.638 					"/>
					
						<linearGradient id="SVGID_67_" gradientUnits="userSpaceOnUse" x1="1521.3049" y1="-310.0986" x2="1521.3049" y2="-316.4205" gradientTransform="matrix(1 0 0 -1 -1362.998 -276.9512)">
						<stop  offset="0" style="stop-color:#0E0E0E"/>
						<stop  offset="0.227" style="stop-color:#000000"/>
						<stop  offset="1" style="stop-color:#414141"/>
					</linearGradient>
					<polygon fill="url(#SVGID_67_)" points="160.377,35.638 155.775,40.244 156.233,40.244 160.84,35.638 					"/>
					
						<linearGradient id="SVGID_68_" gradientUnits="userSpaceOnUse" x1="1522.5315" y1="-310.0986" x2="1522.5315" y2="-316.4205" gradientTransform="matrix(1 0 0 -1 -1362.998 -276.9512)">
						<stop  offset="0" style="stop-color:#0E0E0E"/>
						<stop  offset="0.227" style="stop-color:#000000"/>
						<stop  offset="1" style="stop-color:#414141"/>
					</linearGradient>
					<polygon fill="url(#SVGID_68_)" points="161.604,35.638 157.001,40.244 157.459,40.244 162.067,35.638 					"/>
					
						<linearGradient id="SVGID_69_" gradientUnits="userSpaceOnUse" x1="1523.7581" y1="-310.0986" x2="1523.7581" y2="-316.4205" gradientTransform="matrix(1 0 0 -1 -1362.998 -276.9512)">
						<stop  offset="0" style="stop-color:#0E0E0E"/>
						<stop  offset="0.227" style="stop-color:#000000"/>
						<stop  offset="1" style="stop-color:#414141"/>
					</linearGradient>
					<polygon fill="url(#SVGID_69_)" points="162.832,35.638 158.226,40.244 158.688,40.244 163.293,35.638 					"/>
					
						<linearGradient id="SVGID_70_" gradientUnits="userSpaceOnUse" x1="1524.9846" y1="-310.0986" x2="1524.9846" y2="-316.4205" gradientTransform="matrix(1 0 0 -1 -1362.998 -276.9512)">
						<stop  offset="0" style="stop-color:#0E0E0E"/>
						<stop  offset="0.227" style="stop-color:#000000"/>
						<stop  offset="1" style="stop-color:#414141"/>
					</linearGradient>
					<polygon fill="url(#SVGID_70_)" points="164.06,35.638 159.454,40.244 159.916,40.244 164.519,35.638 					"/>
					
						<linearGradient id="SVGID_71_" gradientUnits="userSpaceOnUse" x1="1526.2161" y1="-310.0986" x2="1526.2161" y2="-316.4205" gradientTransform="matrix(1 0 0 -1 -1362.998 -276.9512)">
						<stop  offset="0" style="stop-color:#0E0E0E"/>
						<stop  offset="0.227" style="stop-color:#000000"/>
						<stop  offset="1" style="stop-color:#414141"/>
					</linearGradient>
					<polygon fill="url(#SVGID_71_)" points="165.286,35.638 160.682,40.244 161.142,40.244 165.754,35.638 					"/>
					
						<linearGradient id="SVGID_72_" gradientUnits="userSpaceOnUse" x1="1527.4377" y1="-310.0986" x2="1527.4377" y2="-316.4205" gradientTransform="matrix(1 0 0 -1 -1362.998 -276.9512)">
						<stop  offset="0" style="stop-color:#0E0E0E"/>
						<stop  offset="0.227" style="stop-color:#000000"/>
						<stop  offset="1" style="stop-color:#414141"/>
					</linearGradient>
					<polygon fill="url(#SVGID_72_)" points="166.514,35.638 161.902,40.244 162.369,40.244 166.977,35.638 					"/>
					
						<linearGradient id="SVGID_73_" gradientUnits="userSpaceOnUse" x1="1528.6643" y1="-310.0986" x2="1528.6643" y2="-316.4205" gradientTransform="matrix(1 0 0 -1 -1362.998 -276.9512)">
						<stop  offset="0" style="stop-color:#0E0E0E"/>
						<stop  offset="0.227" style="stop-color:#000000"/>
						<stop  offset="1" style="stop-color:#414141"/>
					</linearGradient>
					<polygon fill="url(#SVGID_73_)" points="167.739,35.638 163.13,40.244 163.593,40.244 168.202,35.638 					"/>
					
						<linearGradient id="SVGID_74_" gradientUnits="userSpaceOnUse" x1="1529.8918" y1="-310.0986" x2="1529.8918" y2="-316.4205" gradientTransform="matrix(1 0 0 -1 -1362.998 -276.9512)">
						<stop  offset="0" style="stop-color:#0E0E0E"/>
						<stop  offset="0.227" style="stop-color:#000000"/>
						<stop  offset="1" style="stop-color:#414141"/>
					</linearGradient>
					<polygon fill="url(#SVGID_74_)" points="168.967,35.638 164.358,40.244 164.823,40.244 169.43,35.638 					"/>
					
						<linearGradient id="SVGID_75_" gradientUnits="userSpaceOnUse" x1="1531.1057" y1="-310.0986" x2="1531.1057" y2="-316.4205" gradientTransform="matrix(1 0 0 -1 -1362.998 -276.9512)">
						<stop  offset="0" style="stop-color:#0E0E0E"/>
						<stop  offset="0.227" style="stop-color:#000000"/>
						<stop  offset="1" style="stop-color:#414141"/>
					</linearGradient>
					<path fill="url(#SVGID_75_)" d="M170.19,35.638l-4.604,4.606h0.463l4.58-4.578c-0.116-0.02-0.237-0.029-0.36-0.029
						L170.19,35.638L170.19,35.638z"/>
					
						<linearGradient id="SVGID_76_" gradientUnits="userSpaceOnUse" x1="1532.1545" y1="-310.0986" x2="1532.1545" y2="-316.4202" gradientTransform="matrix(1 0 0 -1 -1362.998 -276.9512)">
						<stop  offset="0" style="stop-color:#0E0E0E"/>
						<stop  offset="0.227" style="stop-color:#000000"/>
						<stop  offset="1" style="stop-color:#414141"/>
					</linearGradient>
					<path fill="url(#SVGID_76_)" d="M166.812,40.245h0.463l4.228-4.226c-0.091-0.062-0.188-0.12-0.289-0.167L166.812,40.245z"/>
					
						<linearGradient id="SVGID_77_" gradientUnits="userSpaceOnUse" x1="1533.0696" y1="-310.0986" x2="1533.0696" y2="-316.42" gradientTransform="matrix(1 0 0 -1 -1362.998 -276.9512)">
						<stop  offset="0" style="stop-color:#0E0E0E"/>
						<stop  offset="0.227" style="stop-color:#000000"/>
						<stop  offset="1" style="stop-color:#414141"/>
					</linearGradient>
					<path fill="url(#SVGID_77_)" d="M168.037,40.244h0.463l3.605-3.611c-0.058-0.092-0.13-0.178-0.204-0.259L168.037,40.244z"/>
					
						<linearGradient id="SVGID_78_" gradientUnits="userSpaceOnUse" x1="1533.8674" y1="-310.0996" x2="1533.8674" y2="-316.4203" gradientTransform="matrix(1 0 0 -1 -1362.998 -276.9512)">
						<stop  offset="0" style="stop-color:#0E0E0E"/>
						<stop  offset="0.227" style="stop-color:#000000"/>
						<stop  offset="1" style="stop-color:#414141"/>
					</linearGradient>
					<path fill="url(#SVGID_78_)" d="M169.27,40.244h0.458l2.741-2.739c-0.025-0.125-0.056-0.248-0.098-0.367L169.27,40.244z"/>
					
						<linearGradient id="SVGID_79_" gradientUnits="userSpaceOnUse" x1="1534.4944" y1="-310.0996" x2="1534.4944" y2="-316.4205" gradientTransform="matrix(1 0 0 -1 -1362.998 -276.9512)">
						<stop  offset="0" style="stop-color:#0E0E0E"/>
						<stop  offset="0.227" style="stop-color:#000000"/>
						<stop  offset="1" style="stop-color:#414141"/>
					</linearGradient>
					<path fill="url(#SVGID_79_)" d="M170.506,40.231c0.217-0.024,0.431-0.083,0.633-0.17l1.177-1.178
						c0.088-0.196,0.146-0.41,0.17-0.63L170.506,40.231z"/>
				</g>
			</g>
		</g>
	</g>
</g>
</svg>
